<svg xmlns="http://www.w3.org/2000/svg" width="213" height="213" viewBox="0 0 213 213">
    <g id="Grupo_92" data-name="Grupo 92" transform="translate(-534 -249)">
        <rect id="Rectángulo_27" data-name="Rectángulo 27" width="213" height="213" transform="translate(534 249)" fill="#7a7a7a"/>
        <path id="Trazado_83" data-name="Trazado 83" d="M81.053,62.046,68.49,32.705c-4.255-9.954-12.081-10.356-17.34-.883L43.564,45.509c-3.853,6.944-11.038,7.546-16.015,1.325l-.883-1.124c-5.178-6.5-12.483-5.7-16.216,1.726l-6.9,13.848A14.481,14.481,0,0,0,16.471,82.276H67.687A14.519,14.519,0,0,0,81.053,62.046ZM22.01,26.083A12.041,12.041,0,1,0,9.969,14.041,12.041,12.041,0,0,0,22.01,26.083Z" transform="translate(600.021 310)" fill="none" stroke="#fff" stroke-linecap="round" stroke-linejoin="round" stroke-width="2"/>
    </g>
</svg>
