<svg xmlns="http://www.w3.org/2000/svg" width="706.077" height="160" viewBox="0 0 706.077 160">
    <g id="Grupo_224" data-name="Grupo 224" transform="translate(2911.664 799.972)">
        <path id="Trazado_919" data-name="Trazado 919" d="M-2063.343-606.233a11.409,11.409,0,0,0,1.513-3.479,1.043,1.043,0,0,0,.508-1,20.182,20.182,0,0,0,1.911-5.008c.768-.44.786-1.266,1.018-1.982,2.324-6.137,4.8-12.244,7.363-18.253,3.342-7.83,6.5-15.753,10-23.526a1.976,1.976,0,0,1,2.081-1.344q19.942.033,39.883-.005a2.069,2.069,0,0,1,2.266,1.8q5.35,20.678,10.742,41.344c1.2,4.6,2.437,9.184,3.866,14.564,1.5-3.416,2.772-6.179,3.932-8.989q9.725-23.545,19.387-47.117a2.253,2.253,0,0,1,2.451-1.574c5.733.039,11.466-.009,17.2-.02.9,0,1.959-.185,1.793,1.3a.712.712,0,0,0-.33.983,7.447,7.447,0,0,0-1.412,3.356c-.614.16-.707.59-.587,1.131l-1.191,3a.88.88,0,0,0-.436.988l-.281.866a8.016,8.016,0,0,0-1.746,4.117c-1.993,3.827-3.391,7.9-5.025,11.883q-5.419,13.2-10.925,26.364c-4.458,10.7-9.013,21.362-13.343,32.114-.938,2.33-1.964,3.267-4.627,3.235-13.7-.168-27.411-.13-41.116-.031-2.1.015-2.981-.539-3.522-2.637-4.063-15.763-8.255-31.492-12.466-47.216-.156-.583.294-1.732-.864-1.741-.877-.006-.753.991-.977,1.533q-9.789,23.656-19.47,47.356c-.792,1.945-1.752,2.8-3.987,2.718-5.06-.193-10.133-.122-15.2-.026-1.981.037-2.646-.129-1.663-2.37,3.311-7.551,6.345-15.223,9.585-22.805.381-.892-.034-2.03.919-2.694a1.7,1.7,0,0,0,.573-1.363l.282-.88c.65-.343.657-1.015.825-1.6a3.361,3.361,0,0,0,.628-2.484Z" transform="translate(-418.481 -69.768)" fill="#fff"/>
        <path id="Trazado_920" data-name="Trazado 920" d="M-2548.819-582.164a51.634,51.634,0,0,1-15.422.019,3.394,3.394,0,0,0-2.5-.83l-.063-.115-.129.021a3.524,3.524,0,0,0-2.239-1.026,38.689,38.689,0,0,1-8.122-6.492c-1.044-1.124-1.686-1.087-2.154.493-.351,1.183-1.113,2.263-1.353,3.457-.63,3.137-2.471,3.765-5.488,3.693-9.133-.22-18.275-.12-27.412-.043-2.13.018-2.464-.311-1.569-2.442,8.1-19.3,16.069-38.647,24.06-57.989q7.727-18.7,15.386-37.433c.705-1.731,1.542-2.55,3.607-2.522,9.635.13,19.272.113,28.908.006,2.26-.025,2.253.747,1.543,2.436q-8.217,19.548-16.361,39.127c-.3.73-.483,1.514-.87,2.748,3.1-1.875,5.74-3.5,8.41-5.083,7.691-4.547,16.01-6.874,24.911-5.883,6.927.77,12.4,3.168,14.438,11.1,1.014,3.938.1,7.866-1.456,11.622-4.072,9.85-8,19.755-13.42,28.991-3.645,6.206-8.942,10.437-15.193,13.676-.513.025-1.054-.03-1.393.49l-.136.057C-2544.854-583.516-2546.962-583.231-2548.819-582.164Zm-19.1-13.315c4.433.249,7.174-2.365,8.921-6.118,2.023-4.344,3.766-8.819,5.609-13.246,1.652-3.968,3.4-7.9,4.877-11.934,1.642-4.5-.693-7.442-5.428-7.256-4.885.192-8.092,2.974-9.971,7.062-3.558,7.74-6.679,15.679-10.1,23.482A5.8,5.8,0,0,0-2567.922-595.479Z" transform="translate(-148.379 -58.463)" fill="#981331"/>
        <path id="Trazado_921" data-name="Trazado 921" d="M-2877.117-657.006c.826-3.441,3.244-3.725,6.329-3.715,27.606.091,55.214.029,82.822.02,3.478,0,3.476.019,2.162,3.355-.3.767-.59,1.541-.884,2.312-.938,2.281-2.054,4.508-2.758,6.86-.573,1.912-1.763,2.066-3.382,2.062-14.679-.032-29.359.02-44.037-.069-1.951-.012-2.985.488-3.671,2.376-1.435,3.951-3.493,7.658-4.724,11.7-.536.26-.507.823-.684,1.276l-.083.1a5.6,5.6,0,0,0-1.083,2.671l-.082.164a1.339,1.339,0,0,0-.4,1.216l-.123.064v.138l-.619.905c-1.35.354-.993,1.438-.767,2.223.308,1.073,1.376.692,2.145.7q15.179.083,30.358.117l-.425.91c-1.858.251-1.427,1.356-.927,2.487-1.781,3.729-2.591,7.878-4.928,11.365a.48.48,0,0,0-.4.223l-31.97.09c-2.056,2.405-2.792,5.418-3.815,8.3a.163.163,0,0,0-.142.232,6.49,6.49,0,0,0-.973,2.708l-.06.08a9.547,9.547,0,0,0-1.852,4.448l-.081.169a2.553,2.553,0,0,0-.69,1.7v.024a16.42,16.42,0,0,0-2.188,5.1l-.117.159c-1.547,3.647-3.181,7.261-4.6,10.957a2.791,2.791,0,0,1-3.132,2.035c-11.614-.069-23.229-.028-34.844-.03-4.743,0-4.569.064-2.716-4.355,1.84-4.389,4.08-8.635,5.235-13.3l.109-.06-.032-.12a21.226,21.226,0,0,0,3.008-7.245l.079-.107a66.087,66.087,0,0,0,4.716-11.413c4.329-9.733,8.292-19.617,12.229-29.511a3.4,3.4,0,0,0,.873-2.365l.105-.095-.043-.134c.818-.334.906-1.04.909-1.788l.114-.067-.027-.128a42.173,42.173,0,0,0,2.825-6.823.2.2,0,0,0,.154-.277,4.545,4.545,0,0,0,.94-2.654l.126-.055,0-.136a5.122,5.122,0,0,0,1.072-2.74l0,.006c.93-.395.768-1.292.937-2.037Z" transform="translate(0 -69.821)" fill="#981331"/>
        <path id="Trazado_922" data-name="Trazado 922" d="M-2191.794-550.8c-.762,1.071-1.845,1.158-3.057,1.154-10.593-.037-21.187-.026-31.78-.036-2.856,0-2.814,0-1.876-2.626.257-.72.968-1.369.549-2.423-4.093,1.164-7.744,3.582-12,4.175a27.243,27.243,0,0,0-3.928.912,23.769,23.769,0,0,1-10.7.81c-1.4-.269-2.052-.622-4.22-.918a6.889,6.889,0,0,1-3.511-.77,41.481,41.481,0,0,1-5.068-2.088c-5.007-3.158-6.775-9.487-4.512-15.835,2.371-6.654,7.153-11.237,12.873-14.951,6.32-4.1,13.4-5.663,20.849-6.413,4.9-.495,9.771-.268,14.65-.458,4.977-.194,9.617-1.146,13.469-4.642,1.848-1.677,3.114-3.537,2.574-6.071-.507-2.377-2.6-3.248-4.628-3.589-5.34-.9-12.659,1.053-16.174,6.464a4.818,4.818,0,0,1-4.777,2.527c-6.225-.16-12.458-.029-18.687-.051-.771,0-1.863.436-2.235-.463-.308-.747.429-1.532.891-2.195,5.014-7.186,11.376-12.593,19.844-15.377,4.432-1.457,8.976-1.964,13.559-2.6,5.808-.8,11.6-.573,17.379-.472,8.031.141,15.971,1.109,23.351,4.675l.541.384.112.095a7.157,7.157,0,0,0,2.384,2.372l.067.112a6.1,6.1,0,0,0,1.895,2.951l.059.072a18.038,18.038,0,0,1,.732,5.105c.109,2.013-.686,3.9-.572,5.886a.2.2,0,0,0-.135.278,14.581,14.581,0,0,0-1.949,5.158l-.077.163c-2.016,4.752-4.294,9.4-5.837,14.342a.164.164,0,0,0-.129.246,4.116,4.116,0,0,0-1,2.672l-.071.093c-.566.262-.564.8-.617,1.3l-.02.026a19.257,19.257,0,0,0-2.259,5.583l-.08.1a22.326,22.326,0,0,0-2.588,6.3l-.006.017a13.622,13.622,0,0,0-2.122,5.08l-.289.608Zm-24.954-29.27a40.63,40.63,0,0,0-14.04,4.282c-2.558,1.242-3.9,3.777-4.672,6.486a4.7,4.7,0,0,0,3.588,6.03,10.289,10.289,0,0,0,10.5-5.909c1.581-3.633,3.1-7.29,4.65-10.935l-.027-.073Z" transform="translate(-320.295 -91.822)" fill="#981331"/>
        <path id="Trazado_923" data-name="Trazado 923" d="M-1725.486-602.7c.612,6.468-2.47,11.962-4.442,17.8-1.432,4.244-3.608,5.439-8.037,5.314-12.868-.365-25.755-.083-38.633-.182-2.107-.016-3.142.68-3.8,2.637-.887,2.653-2.084,5.2-3.1,7.812-2.228,5.706,1.565,8.028,5.92,7.961,5.513-.086,10.332-2.8,12.471-7.679,2.186-4.987,5.207-5.985,10.068-5.672,6.205.4,12.458.156,18.688.055,1.864-.03,2.459.463,1.674,2.216a35.2,35.2,0,0,1-15.774,17.247c-10.1,5.392-21.131,5.889-32.238,6.009-8.571.092-16.966-.793-25.092-3.718-4.46-1.6-9.392-8.328-9.668-13.081-.546-9.387,2.786-17.793,6.376-26.141a44.939,44.939,0,0,1,17.277-20.041,41.364,41.364,0,0,1,19.765-6.374,161.412,161.412,0,0,1,23.144.145c6.193.418,12.5,1.147,17.857,4.936a33.868,33.868,0,0,1,5.022,4.806c.04.509.175.955.737,1.121a.337.337,0,0,0,.23.377l.486.978.719,2.5A.761.761,0,0,0-1725.486-602.7Zm-40.862,10.374v-.024c1.075,0,2.151.01,3.226,0,5.38-.056,4.17.562,5.927-4.246.339-.927.777-1.823,1.047-2.768.508-1.778,1.621-3.72-.3-5.252a6.839,6.839,0,0,0-6.6-1.42c-6.489,1.813-8.177,7.376-10.469,12.527-.5,1.117.419,1.184,1.213,1.184Z" transform="translate(-548.615 -90.796)" fill="#fff"/>
        <path id="Trazado_924" data-name="Trazado 924" d="M-1619.009-628.961c1.431-3.326,2.969-6.611,4.243-10a2.8,2.8,0,0,1,2.905-2.11c10.8-.282,18.641-5.928,25.136-13.956,1.556-1.922,3.005-3.934,4.448-5.945a3.8,3.8,0,0,1,3.507-1.829c4.649.126,9.306.136,13.955.006,2-.056,1.872.608,1.26,2.061-2.721,6.462-5.333,12.969-8.058,19.43-.731,1.733-.435,2.293,1.521,2.186,2.727-.148,5.468-.037,8.532-.037-1.723,4.3-3.328,8.392-5.018,12.453-.4.968-1.391,1.017-2.354,1-2.325-.038-4.656.059-6.977-.053a2.492,2.492,0,0,0-2.806,1.765c-4.07,9.914-8.431,19.715-12.228,29.731-2.068,5.456-.9,6.778,5.091,7.327,3.08.282,3.075.07,1.868,2.958-1.138,2.723-2.219,5.471-3.325,8.207l-1.553,2.991-18.07.139a8.823,8.823,0,0,0-3.973-.433c-3.062,0-6.008-.823-9-1.3-2.922-.466-6.694-4.843-7.154-8-.782-5.358,1.467-10.047,3.329-14.755,3.564-9.011,7.387-17.921,11.13-26.86.536-1.282.314-1.873-1.166-1.741-1.068.1-2.14.146-3.209.217-2.436.044-3.347-.878-2.041-3.213C-1618.982-628.779-1619.01-628.878-1619.009-628.961Z" transform="translate(-644.026 -68.779)" fill="#fff"/>
        <path id="Trazado_925" data-name="Trazado 925" d="M-2331.413-613.76q-4.164,10.219-8.33,20.436c-1.56,3.81-3.149,7.608-4.682,11.309-.576.149-.769-.081-.908-.41-2.895-6.9-10.562-9.018-16.75-4.776a22.505,22.505,0,0,0-7.9,10.3q-5.547,13.137-10.894,26.359a2.86,2.86,0,0,1-3.082,2.158q-14.575-.112-29.151,0c-1.842.011-2.35-.337-1.557-2.233,3.792-9.07,7.455-18.194,11.181-27.291,4.578-11.172,9.229-22.314,13.712-33.524.871-2.178,1.982-2.931,4.358-2.9,10.126.148,20.257.063,30.653.063-1.026,4.293-3.387,7.941-4.647,12.543,2.55-1.939,4.6-3.767,6.9-5.2,6.455-4.024,13.39-6.7,21.131-6.793Z" transform="translate(-249.018 -93.078)" fill="#981331"/>
        <path id="Trazado_926" data-name="Trazado 926" d="M-2662.246-607.977c-.058.209-.115.419-.172.627-.733.439-.71,1.208-.829,1.915l-.119.054.01.129a6.348,6.348,0,0,0-1.008,2.77l-.02.025c-.594.28-.508.868-.621,1.367l-.02.013a4.656,4.656,0,0,0-1.137,2.664.164.164,0,0,0-.136.239,6.731,6.731,0,0,0-.986,2.678l-.091.142a23.95,23.95,0,0,0-2.918,7.335l-.072.087c-1.091,1.09-1.347,2.551-1.745,3.948l-.262.607c-1.449,3.218-3.147,6.341-3.889,9.842l-.049.081c-1.508,1.813-1.87,4.123-2.7,6.229l0,.036c-.059.212-.12.424-.18.636l-.111.067.032.124a27.012,27.012,0,0,0-3.129,7.674l-.013.034a21.041,21.041,0,0,0-2.879,7l-.05.073c-1.112,3.54-3.785,3.64-6.936,3.566-8.117-.19-16.242-.061-24.364-.042-3.776.009-3.775.028-2.721-3.576a2.666,2.666,0,0,0,.05-.493l.111-.156a4.845,4.845,0,0,0,.979-2.772c2.659-5.053,4.475-10.466,6.69-15.708,3.607-8.536,7.077-17.13,10.587-25.707.434-1.062,1.051-2.1.759-3.337a4.077,4.077,0,0,0,1.669-2.341c1.216-2.975,2.534-5.917,3.559-8.958.627-1.862,1.523-2.493,3.539-2.471,10.333.117,20.669.049,31,.046l.135.078-.647,2.469,0-.005a.952.952,0,0,0-.366,1.052l-.042.08A3.424,3.424,0,0,0-2662.246-607.977Z" transform="translate(-96.116 -93.463)" fill="#981331"/>
        <path id="Trazado_927" data-name="Trazado 927" d="M-2286.477-779.595a33.6,33.6,0,0,0-1.471-5.072c-1.222-2.646-2.889-4.968-6.26-5.05-2.953-2.166-6.036-1.481-9.137-.409a7.691,7.691,0,0,0-5.382,10.287c1.16,2.777,3.67,4.014,6.189,5.035,5.277,2.136,10.653,4.027,15.959,6.091,6.519,2.536,11.263,6.82,12.055,14.088.87,7.992-.655,15.428-8.143,19.923-7.142,4.288-17.584,4.828-25.049.128-1.457-.917-2.3-2.492-3.794-4a19.125,19.125,0,0,0-.1,5.5c-3.263.646-6.581-.08-9.85.4l-.68-.7c.061-6.452.178-12.9.148-19.356-.008-1.736.546-2.282,2.265-2.273,2.379.013,4.787.382,7.148-.243l.653.25a16.668,16.668,0,0,0,1.39,5.176l.012.035c-.049.542-.186,1.109.414,1.468l.072.113a1.2,1.2,0,0,0,.467,1.192.17.17,0,0,0,.111.261.393.393,0,0,0,.31.544c1.751,3.64,6.527,6.13,10.9,5.451,2.284-.354,4.777-.232,6.648-2.024,1.444-.156,2.029-1.268,2.629-2.363l-.015-.016q.149-.308.3-.615l.068-.108a4.439,4.439,0,0,0,.645-2.313l-.027.008c.892-1.81.11-3.423-.591-5.046-2-4.129-6.248-4.918-9.9-6.382-5.737-2.3-11.609-4.26-17.1-7.146l-.435-.353-.023-.127-.128-.007c-.277-.574-.841-.723-1.372-.921l-.048-.037-.946-.911a.233.233,0,0,0-.226-.227l-.585-.567.034.007a2.027,2.027,0,0,0-1.2-1.721l-.068-.1a27.5,27.5,0,0,1-2.033-10.4v-1.1c.184-2.008,1.416-3.823,1.095-5.924,2.9-5.683,6.867-9.742,13.75-10.406,3.969-.383,7.826-.76,11.758.132a14.833,14.833,0,0,1,9.308,6.439c.666-1.8.067-3.536.464-5.158,2.477,0,4.958.076,7.431-.025,1.594-.065,2.19.455,2.15,2.105-.1,3.961-.028,7.926-.027,11.89,0,6.022,0,5.976-6.138,6.034A4,4,0,0,1-2286.477-779.595Z" transform="translate(-295.342)" fill="#981331"/>
        <path id="Trazado_928" data-name="Trazado 928" d="M-2117.361-764.748c-1.7,2.155-3.308,4.4-5.8,5.778a19.065,19.065,0,0,1-5.046,1.808c-6.426,1.5-12.968.515-19.42,1.174-.8,3.666-.235,7.377-.318,11.064-.036,1.6-.49,3.3.407,4.845,1.554.827,3.225.333,4.835.371,3.7.088,4,.328,4.023,3.926.008,1.068.1,2.137.153,3.206v.81l-30,.011a53.144,53.144,0,0,1,.054-8.382l-.05.025c1.823,0,3.655-.118,5.467.026,1.785.142,2.179-.528,2.17-2.24-.073-14.5-.039-29.009-.073-43.514,0-.718.52-1.7-.619-2.126l-.98-.042h-5.017l-.86-.1a43.8,43.8,0,0,1-.055-8.418l37.57-.094a1.2,1.2,0,0,0,.283-.164,20.38,20.38,0,0,1,8.615,3.206l1.306.907a.284.284,0,0,0,.273.261.939.939,0,0,0,.723.768l.095.121a1.257,1.257,0,0,0,.925.908l.059.051c.764,1.329,1.276,2.819,2.466,3.879l.077.154c-.065.5-.1.994.409,1.317l.073.126C-2113.945-778.11-2114.111-771.3-2117.361-764.748Zm-30.591-12h.01c0,3.233.031,6.466-.016,9.7-.018,1.227.333,1.832,1.687,1.791,2.65-.078,5.313.1,7.956-.071,5.524-.347,8.51-2.6,9.944-7.412.577-1.933.237-3.955.219-5.932-.044-4.6-2.913-7.907-7.407-8.929-3.7-.842-7.429-.29-11.139-.476-1.241-.062-1.26.75-1.258,1.632C-2147.948-783.212-2147.952-779.979-2147.952-776.747Z" transform="translate(-372.545 -1.601)" fill="#981331"/>
        <path id="Trazado_929" data-name="Trazado 929" d="M-2648.484-656.951c-1.941-8.251.673-13.173,9.553-17.984a19.732,19.732,0,0,1,9.229-2.172,23.006,23.006,0,0,0,3.425-.339,19.7,19.7,0,0,1,5.5,1.277c7.381,2.832,7.506,9.829,3.7,15.329-3.643,5.268-9.3,7.727-15.478,8.866-5.267.97-10.157.157-14.405-3.421C-2647.536-655.88-2647.862-656.551-2648.484-656.951Z" transform="translate(-131.656 -61.435)" fill="#981331"/>
        <path id="Trazado_930" data-name="Trazado 930" d="M-2431.017-787.8c-1.539-1.219-3.334-.551-4.976-.518-2.074.043-2.929-.4-2.865-2.724.146-5.312.017-5.319,5.434-5.322,6.722,0,13.445.062,20.165-.04,1.888-.029,2.393.588,2.383,2.421-.03,5.384.046,5.385-5.377,5.6-.572.023-1.177-.076-1.609.448-.69.691-.4,1.571-.4,2.362-.021,14.435.017,28.871-.056,43.306-.01,1.862.5,2.39,2.374,2.367,5.727-.069,5.573.015,5.611,5.8.018,2.647-.85,3.236-3.362,3.182-7.711-.167-15.428-.117-23.141-.019-1.861.023-2.556-.5-2.343-2.38.25-2.208-.342-4.471.378-6.659,2.479-.026,5.635,1.014,7.248-.39,1.672-1.456.538-4.691.546-7.137C-2430.956-760.93-2431-774.363-2431.017-787.8Z" transform="translate(-236.888 -1.791)" fill="#981331"/>
        <rect id="Rectángulo_153" data-name="Rectángulo 153" width="12.559" height="12.912" transform="translate(-2638.878 -745.337)" fill="#981331"/>
        <rect id="Rectángulo_154" data-name="Rectángulo 154" width="12.559" height="12.912" transform="translate(-2499.734 -745.337)" fill="#981331"/>
        <rect id="Rectángulo_155" data-name="Rectángulo 155" width="12.559" height="12.912" transform="translate(-2564.662 -746.268)" fill="#981331"/>
    </g>
</svg>
