<svg xmlns="http://www.w3.org/2000/svg" width="265.021" height="60.055" viewBox="0 0 265.021 60.055">
    <g id="Grupo_225" data-name="Grupo 225" transform="translate(2911.664 799.972)">
        <path id="Trazado_919" data-name="Trazado 919" d="M-2071.9-640.335a4.283,4.283,0,0,0,.568-1.306.391.391,0,0,0,.191-.374,7.571,7.571,0,0,0,.717-1.88c.288-.165.3-.475.382-.744.873-2.3,1.8-4.6,2.764-6.851,1.254-2.939,2.441-5.913,3.751-8.83a.742.742,0,0,1,.781-.5q7.485.012,14.97,0a.777.777,0,0,1,.851.677q2.008,7.761,4.032,15.518c.45,1.725.915,3.447,1.451,5.467.562-1.282,1.04-2.319,1.476-3.374q3.65-8.837,7.277-17.685a.845.845,0,0,1,.92-.591c2.152.015,4.3,0,6.456-.008.339,0,.735-.069.673.488a.267.267,0,0,0-.124.369,2.8,2.8,0,0,0-.53,1.26c-.23.06-.265.221-.22.424l-.447,1.125a.33.33,0,0,0-.164.371l-.105.325a3.011,3.011,0,0,0-.655,1.545c-.748,1.436-1.273,2.967-1.886,4.46q-2.034,4.954-4.1,9.9c-1.673,4.017-3.383,8.018-5.008,12.054a1.569,1.569,0,0,1-1.737,1.214c-5.144-.063-10.288-.049-15.432-.012-.787.006-1.119-.2-1.322-.99-1.525-5.917-3.1-11.82-4.679-17.722-.059-.219.11-.65-.324-.653-.329,0-.282.372-.367.576q-3.674,8.879-7.308,17.775a1.345,1.345,0,0,1-1.5,1.02c-1.9-.072-3.8-.046-5.7-.01-.744.014-.993-.048-.624-.89,1.243-2.834,2.382-5.714,3.6-8.56.143-.335-.013-.762.345-1.011a.64.64,0,0,0,.215-.512l.106-.33c.244-.129.247-.381.31-.6a1.261,1.261,0,0,0,.236-.932Z" transform="translate(-678.423 -113.105)" fill="#2d2b2c"/>
        <path id="Trazado_920" data-name="Trazado 920" d="M-2590.619-645.385a19.383,19.383,0,0,1-5.789.007,1.274,1.274,0,0,0-.939-.312l-.023-.043-.049.008a1.322,1.322,0,0,0-.84-.385,14.523,14.523,0,0,1-3.049-2.437c-.392-.422-.633-.408-.809.185-.131.444-.418.849-.508,1.3-.237,1.177-.928,1.413-2.06,1.386-3.428-.083-6.859-.045-10.289-.016-.8.007-.925-.117-.589-.916,3.04-7.243,6.031-14.506,9.031-21.766q2.9-7.02,5.775-14.05a1.247,1.247,0,0,1,1.354-.947c3.616.049,7.234.042,10.851,0,.848-.009.845.281.579.914q-3.084,7.337-6.141,14.686c-.114.274-.181.568-.326,1.032,1.163-.7,2.154-1.315,3.156-1.908a14.864,14.864,0,0,1,9.35-2.208c2.6.289,4.653,1.189,5.419,4.165a6.859,6.859,0,0,1-.546,4.362,86.1,86.1,0,0,1-5.037,10.881,13.522,13.522,0,0,1-5.7,5.133c-.193.01-.4-.011-.523.184l-.051.021A9.521,9.521,0,0,0-2590.619-645.385Zm-7.17-5a3.377,3.377,0,0,0,3.349-2.3c.759-1.631,1.413-3.31,2.1-4.972.62-1.489,1.278-2.966,1.831-4.479.616-1.687-.26-2.793-2.038-2.723a4.145,4.145,0,0,0-3.743,2.651c-1.335,2.9-2.507,5.885-3.792,8.814A2.176,2.176,0,0,0-2597.79-650.383Z" transform="translate(-240.546 -94.778)" fill="#981331"/>
        <path id="Trazado_921" data-name="Trazado 921" d="M-2898.7-659.327c.31-1.291,1.218-1.4,2.375-1.394,10.362.034,20.724.011,31.086.008,1.305,0,1.3.007.812,1.259-.114.288-.221.578-.332.868-.352.856-.771,1.692-1.035,2.575-.215.718-.662.775-1.269.774-5.51-.012-11.02.008-16.529-.026a1.209,1.209,0,0,0-1.378.892c-.539,1.483-1.311,2.875-1.773,4.391-.2.1-.19.309-.257.479l-.031.038a2.1,2.1,0,0,0-.406,1l-.031.062a.5.5,0,0,0-.148.456l-.046.024v.052l-.232.34c-.507.133-.373.54-.288.834.116.4.517.26.8.261q5.7.031,11.395.044l-.16.342c-.7.094-.536.509-.348.933a31.666,31.666,0,0,1-1.85,4.266.18.18,0,0,0-.15.084l-12,.034a9.249,9.249,0,0,0-1.432,3.115.061.061,0,0,0-.053.087,2.439,2.439,0,0,0-.365,1.016l-.022.03a3.585,3.585,0,0,0-.7,1.67l-.03.063a.958.958,0,0,0-.259.636v.009a6.163,6.163,0,0,0-.821,1.914l-.044.06c-.581,1.369-1.194,2.725-1.727,4.113a1.048,1.048,0,0,1-1.176.764c-4.359-.026-8.719-.011-13.078-.011-1.78,0-1.715.024-1.019-1.635a34.663,34.663,0,0,0,1.965-4.991l.041-.022-.012-.045a7.966,7.966,0,0,0,1.129-2.719l.029-.04a24.812,24.812,0,0,0,1.771-4.284c1.625-3.653,3.112-7.363,4.59-11.077a1.278,1.278,0,0,0,.328-.888l.04-.036-.016-.05c.307-.125.34-.39.341-.671l.043-.025-.01-.048a15.829,15.829,0,0,0,1.061-2.561.075.075,0,0,0,.058-.1,1.709,1.709,0,0,0,.353-1l.047-.021v-.051a1.92,1.92,0,0,0,.4-1.028v0c.349-.148.288-.485.352-.765Z" transform="translate(0 -113.19)" fill="#981331"/>
        <path id="Trazado_922" data-name="Trazado 922" d="M-2242.438-592.053a1.229,1.229,0,0,1-1.147.433c-3.976-.014-7.952-.01-11.929-.013-1.072,0-1.056,0-.7-.986.1-.27.363-.514.206-.909-1.536.437-2.906,1.345-4.506,1.567a10.242,10.242,0,0,0-1.474.342,8.921,8.921,0,0,1-4.015.3c-.526-.1-.77-.233-1.583-.345a2.586,2.586,0,0,1-1.318-.289,15.567,15.567,0,0,1-1.9-.784,4.858,4.858,0,0,1-1.694-5.944,11.245,11.245,0,0,1,4.832-5.612,17.08,17.08,0,0,1,7.825-2.407c1.841-.186,3.667-.1,5.5-.172a7.526,7.526,0,0,0,5.056-1.742,2.326,2.326,0,0,0,.966-2.279,1.867,1.867,0,0,0-1.737-1.347,6.265,6.265,0,0,0-6.071,2.426,1.808,1.808,0,0,1-1.793.948c-2.336-.06-4.676-.011-7.014-.019-.29,0-.7.164-.839-.174-.115-.28.161-.575.335-.824A14.489,14.489,0,0,1-2258-615.65a28.468,28.468,0,0,1,5.089-.974,42.034,42.034,0,0,1,6.523-.177,20.6,20.6,0,0,1,8.764,1.755l.2.144.042.036a2.689,2.689,0,0,0,.895.89l.025.042a2.29,2.29,0,0,0,.711,1.108l.022.027a6.772,6.772,0,0,1,.275,1.916c.041.756-.258,1.463-.215,2.209a.074.074,0,0,0-.051.1,5.47,5.47,0,0,0-.732,1.936l-.029.061c-.757,1.784-1.612,3.527-2.191,5.383a.062.062,0,0,0-.049.093,1.545,1.545,0,0,0-.375,1l-.027.035c-.213.1-.212.3-.232.489l-.007.01a7.236,7.236,0,0,0-.848,2.1l-.03.038a8.387,8.387,0,0,0-.971,2.366l0,.006a5.117,5.117,0,0,0-.8,1.907l-.109.228Zm-9.366-10.986a15.249,15.249,0,0,0-5.27,1.607,3.633,3.633,0,0,0-1.754,2.434,1.764,1.764,0,0,0,1.347,2.263,3.862,3.862,0,0,0,3.94-2.218c.594-1.364,1.165-2.736,1.745-4.1l-.01-.027Z" transform="translate(-519.248 -148.858)" fill="#981331"/>
        <path id="Trazado_923" data-name="Trazado 923" d="M-1782.968-612.814c.23,2.428-.927,4.49-1.667,6.683-.537,1.593-1.354,2.042-3.017,1.994-4.83-.137-9.667-.031-14.5-.069a1.265,1.265,0,0,0-1.425.99c-.333,1-.782,1.952-1.165,2.932-.836,2.142.587,3.013,2.222,2.988a5,5,0,0,0,4.681-2.882c.821-1.872,1.954-2.246,3.779-2.129,2.329.15,4.676.059,7.014.021.7-.011.923.174.628.832a13.213,13.213,0,0,1-5.92,6.474c-3.791,2.024-7.932,2.21-12.1,2.255a26.614,26.614,0,0,1-9.418-1.4,6.69,6.69,0,0,1-3.629-4.91c-.2-3.523,1.046-6.678,2.393-9.812a16.867,16.867,0,0,1,6.485-7.522,15.524,15.524,0,0,1,7.419-2.392,60.584,60.584,0,0,1,8.687.054c2.324.157,4.693.431,6.7,1.853a12.71,12.71,0,0,1,1.885,1.8c.015.191.066.359.277.421a.126.126,0,0,0,.086.141l.182.367.27.94A.286.286,0,0,0-1782.968-612.814Zm-15.338,3.894v-.009c.4,0,.807,0,1.211,0,2.019-.021,1.565.211,2.225-1.594.127-.348.292-.684.393-1.039.191-.667.609-1.4-.113-1.971a2.567,2.567,0,0,0-2.477-.533c-2.436.68-3.069,2.769-3.93,4.7-.186.419.157.444.455.444Z" transform="translate(-889.392 -147.194)" fill="#2d2b2c"/>
        <path id="Trazado_924" data-name="Trazado 924" d="M-1624.138-650.1c.537-1.248,1.115-2.481,1.593-3.752a1.051,1.051,0,0,1,1.091-.792c4.053-.106,7-2.225,9.434-5.238.584-.722,1.128-1.477,1.669-2.231a1.428,1.428,0,0,1,1.316-.687c1.745.047,3.493.051,5.238,0,.752-.021.7.228.473.773-1.021,2.425-2,4.868-3.025,7.293-.274.65-.163.861.571.821,1.024-.056,2.052-.014,3.2-.014-.647,1.613-1.249,3.15-1.883,4.674-.151.363-.522.382-.883.376-.873-.014-1.748.022-2.619-.02a.935.935,0,0,0-1.053.662c-1.528,3.721-3.165,7.4-4.59,11.159-.776,2.048-.336,2.544,1.911,2.75,1.156.106,1.154.026.7,1.11-.427,1.022-.833,2.053-1.248,3.08l-.583,1.123-6.783.052a3.311,3.311,0,0,0-1.491-.162,21.434,21.434,0,0,1-3.378-.488,4.225,4.225,0,0,1-2.685-3c-.293-2.011.551-3.771,1.25-5.538,1.338-3.382,2.773-6.726,4.178-10.082.2-.481.118-.7-.438-.653-.4.036-.8.055-1.2.082-.914.017-1.256-.33-.766-1.206C-1624.128-650.029-1624.139-650.067-1624.138-650.1Z" transform="translate(-1044.068 -111.502)" fill="#2d2b2c"/>
        <path id="Trazado_925" data-name="Trazado 925" d="M-2383.641-614.12q-1.563,3.836-3.126,7.671c-.585,1.43-1.182,2.856-1.758,4.245-.216.056-.289-.03-.341-.154a4.084,4.084,0,0,0-6.287-1.793,8.449,8.449,0,0,0-2.964,3.865q-2.082,4.931-4.089,9.894a1.074,1.074,0,0,1-1.157.81q-5.47-.042-10.942,0c-.692,0-.882-.126-.584-.838,1.423-3.4,2.8-6.829,4.2-10.243,1.718-4.193,3.464-8.375,5.147-12.583a1.469,1.469,0,0,1,1.636-1.087c3.8.055,7.6.024,11.505.024-.385,1.611-1.271,2.981-1.744,4.708.957-.728,1.728-1.414,2.592-1.952a15.2,15.2,0,0,1,7.931-2.55Z" transform="translate(-403.697 -150.894)" fill="#981331"/>
        <path id="Trazado_926" data-name="Trazado 926" d="M-2698.3-611.47l-.064.235c-.275.165-.266.453-.311.719l-.045.02,0,.048a2.381,2.381,0,0,0-.378,1.04l-.008.01c-.223.105-.19.326-.233.513l-.008.005a1.749,1.749,0,0,0-.427,1,.061.061,0,0,0-.051.09,2.527,2.527,0,0,0-.37,1.005l-.034.053a8.992,8.992,0,0,0-1.1,2.753l-.027.033a3.128,3.128,0,0,0-.655,1.482l-.1.228a18.442,18.442,0,0,0-1.46,3.694l-.018.03a7.917,7.917,0,0,0-1.015,2.338v.014l-.068.239-.042.025.012.047a10.131,10.131,0,0,0-1.174,2.88l0,.013a7.892,7.892,0,0,0-1.081,2.629l-.019.027c-.417,1.329-1.421,1.366-2.6,1.339-3.046-.071-6.1-.023-9.145-.016-1.417,0-1.417.01-1.021-1.342a.964.964,0,0,0,.019-.185l.042-.059a1.817,1.817,0,0,0,.368-1.041c1-1.9,1.68-3.928,2.511-5.9,1.354-3.2,2.656-6.43,3.974-9.649a2.015,2.015,0,0,0,.285-1.252,1.531,1.531,0,0,0,.627-.879c.457-1.117.951-2.221,1.336-3.362a1.16,1.16,0,0,1,1.328-.927c3.879.044,7.758.019,11.637.017l.051.029-.243.927v0a.357.357,0,0,0-.137.395l-.016.03A1.286,1.286,0,0,0-2698.3-611.47Z" transform="translate(-155.82 -151.518)" fill="#981331"/>
        <path id="Trazado_927" data-name="Trazado 927" d="M-2309.063-792.323a12.588,12.588,0,0,0-.552-1.9,2.655,2.655,0,0,0-2.35-1.9,3.456,3.456,0,0,0-3.429-.154,2.887,2.887,0,0,0-2.02,3.861,3.745,3.745,0,0,0,2.323,1.89c1.98.8,4,1.511,5.99,2.286,2.447.952,4.227,2.56,4.525,5.288.327,3-.246,5.791-3.057,7.478a9.364,9.364,0,0,1-9.4.048,10.07,10.07,0,0,1-1.424-1.5,7.171,7.171,0,0,0-.039,2.064c-1.225.242-2.47-.03-3.7.15l-.255-.264c.023-2.422.067-4.844.056-7.265,0-.651.2-.857.85-.853a10.07,10.07,0,0,0,2.683-.091l.245.094a6.248,6.248,0,0,0,.521,1.943l0,.013c-.018.2-.07.417.156.551l.027.042a.451.451,0,0,0,.175.447.064.064,0,0,0,.042.1.147.147,0,0,0,.116.2,4.042,4.042,0,0,0,4.09,2.046,4.146,4.146,0,0,0,2.5-.76c.542-.058.762-.476.987-.887l-.005-.006.112-.231.026-.04a1.668,1.668,0,0,0,.242-.868l-.01,0a2.125,2.125,0,0,0-.222-1.894c-.75-1.55-2.345-1.846-3.717-2.4a67.523,67.523,0,0,1-6.418-2.682l-.163-.133-.009-.048-.048,0c-.1-.215-.316-.271-.515-.346l-.018-.014-.355-.342a.087.087,0,0,0-.085-.085l-.219-.213.012,0a.761.761,0,0,0-.449-.646l-.026-.038a10.318,10.318,0,0,1-.763-3.9v-.412c.069-.754.531-1.435.411-2.224,1.09-2.133,2.578-3.656,5.161-3.906a13.641,13.641,0,0,1,4.413.05,5.568,5.568,0,0,1,3.494,2.417c.25-.674.025-1.327.174-1.936.93,0,1.861.028,2.789-.01.6-.024.822.171.807.79-.036,1.487-.01,2.975-.01,4.463,0,2.26,0,2.243-2.3,2.265A1.5,1.5,0,0,1-2309.063-792.323Z" transform="translate(-478.796 0)" fill="#981331"/>
        <path id="Trazado_928" data-name="Trazado 928" d="M-2149.406-784.756a7.674,7.674,0,0,1-2.175,2.169,7.156,7.156,0,0,1-1.894.679c-2.412.563-4.867.193-7.289.441a21.5,21.5,0,0,0-.119,4.153,3.232,3.232,0,0,0,.153,1.819,3.778,3.778,0,0,0,1.815.139c1.389.033,1.5.123,1.51,1.474,0,.4.037.8.057,1.2q0,.152,0,.3l-11.26,0a19.907,19.907,0,0,1,.02-3.146l-.019.01c.685,0,1.372-.044,2.052.01s.818-.2.815-.841c-.028-5.444-.014-10.888-.028-16.333,0-.27.2-.637-.232-.8l-.368-.016h-1.883l-.323-.037a16.42,16.42,0,0,1-.021-3.16l14.1-.035a.447.447,0,0,0,.106-.061,7.65,7.65,0,0,1,3.233,1.2l.49.34a.107.107,0,0,0,.1.1.353.353,0,0,0,.271.288l.035.045a.472.472,0,0,0,.347.341l.022.019a5.283,5.283,0,0,0,.925,1.456l.029.058c-.024.188-.038.373.153.494l.028.047A10.906,10.906,0,0,1-2149.406-784.756Zm-11.482-4.5h0c0,1.213.012,2.427-.006,3.64-.006.461.125.688.634.672.995-.029,1.994.036,2.986-.027,2.074-.13,3.194-.977,3.732-2.782a7.418,7.418,0,0,0,.082-2.227,3.351,3.351,0,0,0-2.78-3.352,23.79,23.79,0,0,0-4.181-.179c-.466-.023-.473.281-.472.613C-2160.886-791.686-2160.888-790.473-2160.888-789.259Z" transform="translate(-603.954 -2.596)" fill="#981331"/>
        <path id="Trazado_929" data-name="Trazado 929" d="M-2648.862-669.753c-.729-3.1.252-4.944,3.585-6.75a7.409,7.409,0,0,1,3.464-.815,8.641,8.641,0,0,0,1.286-.127,7.394,7.394,0,0,1,2.063.479c2.77,1.063,2.817,3.689,1.39,5.754a8.56,8.56,0,0,1-5.81,3.328,6.212,6.212,0,0,1-5.407-1.284C-2648.506-669.351-2648.629-669.6-2648.862-669.753Z" transform="translate(-213.436 -99.596)" fill="#981331"/>
        <path id="Trazado_930" data-name="Trazado 930" d="M-2436.138-793.17c-.578-.458-1.251-.207-1.867-.194-.779.016-1.1-.15-1.075-1.022.055-1.994.006-2,2.039-2,2.523,0,5.046.023,7.569-.015.708-.011.9.221.894.909-.011,2.021.018,2.021-2.018,2.1-.215.009-.442-.029-.6.168-.259.259-.15.59-.15.887-.008,5.418.006,10.836-.021,16.255,0,.7.188.9.891.889,2.15-.026,2.092.006,2.106,2.178.007.993-.319,1.215-1.262,1.194-2.894-.063-5.791-.044-8.686-.007-.7.009-.96-.189-.88-.893a11.844,11.844,0,0,1,.142-2.5c.93-.01,2.115.381,2.72-.147.628-.547.2-1.761.205-2.679C-2436.115-783.087-2436.133-788.129-2436.138-793.17Z" transform="translate(-384.033 -2.903)" fill="#981331"/>
        <rect id="Rectángulo_153" data-name="Rectángulo 153" width="4.714" height="4.847" transform="translate(-2809.276 -779.465)" fill="#981331"/>
        <rect id="Rectángulo_154" data-name="Rectángulo 154" width="4.714" height="4.847" transform="translate(-2757.049 -779.465)" fill="#981331"/>
        <rect id="Rectángulo_155" data-name="Rectángulo 155" width="4.714" height="4.847" transform="translate(-2781.419 -779.814)" fill="#981331"/>
    </g>
</svg>